<svg xmlns="http://www.w3.org/2000/svg" version="1.1" xmlns:xlink="http://www.w3.org/1999/xlink" width="1000" height="1000"><style>
    #light-icon {
      display: inline;
    }
    #dark-icon {
      display: none;
    }

    @media (prefers-color-scheme: dark) {
      #light-icon {
        display: none;
      }
      #dark-icon {
        display: inline;
      }
    }
  </style><g id="light-icon"><svg xmlns="http://www.w3.org/2000/svg" version="1.1" xmlns:xlink="http://www.w3.org/1999/xlink" width="1000" height="1000"><g clip-path="url(#SvgjsClipPath1059)"><rect width="1000" height="1000" fill="#ffffff"></rect><g transform="matrix(3.8417210910487896,0,0,3.8417210910487896,0,6.16596235113343)"><svg xmlns="http://www.w3.org/2000/svg" version="1.1" xmlns:xlink="http://www.w3.org/1999/xlink" width="260.3" height="257.09"><svg id="_Слой_1" data-name="Слой 1" xmlns="http://www.w3.org/2000/svg" viewBox="0 0 260.3 257.09">
  <defs>
    <style>
      .cls-1 {
        fill: #fff;
      }
    </style>
  <clipPath id="SvgjsClipPath1059"><rect width="1000" height="1000" x="0" y="0" rx="500" ry="500"></rect></clipPath></defs>
  <path d="M2.62,120.25l-1.12-1.86c1.36-2.95,5.11-1.21,6.58-2.04.18-.1,1.35-2.43,2.35-3.27s2.71-.96,2.9-1.19c.53-.62.83-7.91,1.22-9.64,2.74-12.41,10.44-23.79,21.61-30.01,2.84-1.58,7.9-2.91,9.88-4.34,4.46-3.2,12.38-14.71,17.91-19.5C122.29-2.13,215.58,19.42,246.78,89.31c32.7,73.23-14.66,156.29-93.88,165.51C76.82,263.68,11.52,195.82,23.94,120.25H2.62ZM108.7,215.78c-1.71-1.37-6.35-8.68-8-11.06-8.22-11.81-14.26-23.39-24-34.36-1.47-1.65-8.23-7.58-8.53-8.74-.85-3.22,8.97-7.36,10.27-10.43.15-.78-4.74-9.12-5.52-9.96-3.51-3.73-12.98-7.36-17.48-10.95-3.48-2.77-5.25-6.59-8.82-9.13-3.13.53-16.41-2.33-17.85-.2-13.64,91.28,84.54,158.11,165.51,113.14,57.2-31.77,74.97-105.42,37.52-159.72C195.11,21.21,119.85,10.41,69.22,50.69c-2.26,1.8-11.41,9.67-12.36,11.59-.74,1.49,1.83.53,2.97,1.47.98.81,1.26,2.33,2.08,2.62,2.7.95,7.7.97,10.67,1.87,13.28,4.01,26.66,18.06,29.7,31.64.47,2.11.79,10.08,1.07,10.53.12.19,2.66.91,3.68,1.93,1.18,1.19,1.55,3.4,2.16,3.82,1.86,1.28,6.65-1.08,8.25,2.23l-1.87,1.86c-3.45-.73-7.45.75-10.5.77-6.25.04-12.35-.09-18.66.05-1.34.03-10.88-1.7-10.85.31,1.57,1.61,2.16,3.55,3.71,5.26,1.83,2.03,6.44,4.08,7.12,5.6,1.11,2.5-.48,6.24,1.73,8.75,12.25,16.36,20.75,35.57,38.72,46.62l14.54-1.89c3.54-4.69,6.89-9.55,10.5-14.19,3.81-4.89,10.88-9.34,9.71-16.1.43-.47,10.48,3.74,7.9-5.31-1.54-5.4-13.85-2.4-15.45-4.92-1.24-1.96-.47-5.72-.72-8.07-.15-1.35-1.3-2.37-1.36-3.74-.11-2.4,1.96-6.52,1.29-8.86l-5.87-3.54c1.36-5.69,7.47-6.77,9.65-12.41,1.07-2.78.46-4.7,1.16-7.07.37-1.26,1.95-2.69,2.57-4.17,1.97-4.76,3.58-9.67,5.96-14.26.23-2.49-13.13-10.1-4.74-18.19,4-3.85,10.99-5.15,16.24-3.53,9.18,2.83,11.47,12.63,19.68,16.23l-1.13-2.23c9.41,1.3,29.14,1.01,20.94,15.7,8.22-2.15,12.17,8.37,5.62,12.73-6.02,4.01-10.8-.93-14.39,8.8-2.84,7.69-2.31,17.71-9.82,23.04.72,1.58,1.6,8.45,2.3,9.14.74.73,3.06-.04,3.83,1.83,1.08,2.61-.16,5.76.88,8.05.41.9,2.16,1.94,2.92,3.07,11.52,17.11,8.85,33.45,3.76,52.27-.43,1.59-.06,3.38-.49,4.75-1.36,4.36-15.17,13.14-19.54,15.62-20.03,11.4-43.35,15.99-66.34,13.34-.19-9.27.53-18.7,3-27.68-4.68-.56-17.23,2.58-20.73-.23ZM42.64,72.38c-8.08,3.19-17.6,9.62-19.44,18.7,2.79-3.26,4.64-6.69,7.83-9.74,3.53-3.38,8.11-5.57,11.61-8.95ZM70.32,125.49c-1.02-5.17-6.1-7.03-10.46-4.11l10.46,4.11Z"></path>
  <path d="M55.5,24.36l-.13-2.86c1.2-.18.47,1.23,1.63,1.75,3.87,1.7,20.86-1.85,12-5.29-7.13-2.78-20.55-2.79-25.2,4.32-8.15,12.46,16.45,8.33,16.62,14.66-.73,5.11-7.6,6.36-10.31,9.82-1.05,1.33-.94,3.42-2.22,3.92-2.78-5.74,8.89-10.75,8.15-13.7-1.06-4.21-15.52-1.26-16.4-6.91-.68-4.36,2.78-10.63,6.49-12.93,5.38-3.33,19.22-3.46,24.72-.28,10.7,6.19-10.57,12.15-15.36,7.51Z"></path>
  <path class="cls-1" d="M42.64,72.38c-3.5,3.38-8.08,5.58-11.61,8.95-3.19,3.05-5.04,6.48-7.83,9.74,1.84-9.07,11.37-15.5,19.44-18.7Z"></path>
  <path d="M222.21,206.28c.67-5.97,5.81-10.9,8.82-16.24C284.41,95.42,176.52-7.7,84.77,48.28c-2.51,1.53-13.98,11.17-14.9,11.3-.78.11-2.03-.63-1.42-1.43,46.27-41.7,118.76-34.49,156.73,14.6,29.79,38.52,29.49,96.75-2.97,133.53Z"></path>
  <path d="M35.16,129.22c-3.64,49.2,25.45,92.13,71.43,108.51,3.2,1.14,7.66,1.46,10.54,2.92,1.08.54,2.13.69,1.82,2.28-52.84-9.21-90.9-60.33-86.03-113.72h2.24Z"></path>
</svg></svg></g></g></svg></g><g id="dark-icon"><svg xmlns="http://www.w3.org/2000/svg" version="1.1" xmlns:xlink="http://www.w3.org/1999/xlink" width="1000" height="1000"><g clip-path="url(#SvgjsClipPath1060)"><rect width="1000" height="1000" fill="#ffffff"></rect><g transform="matrix(3.8417210910487896,0,0,3.8417210910487896,0,6.16596235113343)"><svg xmlns="http://www.w3.org/2000/svg" version="1.1" xmlns:xlink="http://www.w3.org/1999/xlink" width="260.3" height="257.09"><svg id="_Слой_1" data-name="Слой 1" xmlns="http://www.w3.org/2000/svg" viewBox="0 0 260.3 257.09">
  <defs>
    <style>
      .cls-1 {
        fill: #fff;
      }
    </style>
  <clipPath id="SvgjsClipPath1060"><rect width="1000" height="1000" x="0" y="0" rx="500" ry="500"></rect></clipPath></defs>
  <path d="M2.62,120.25l-1.12-1.86c1.36-2.95,5.11-1.21,6.58-2.04.18-.1,1.35-2.43,2.35-3.27s2.71-.96,2.9-1.19c.53-.62.83-7.91,1.22-9.64,2.74-12.41,10.44-23.79,21.61-30.01,2.84-1.58,7.9-2.91,9.88-4.34,4.46-3.2,12.38-14.71,17.91-19.5C122.29-2.13,215.58,19.42,246.78,89.31c32.7,73.23-14.66,156.29-93.88,165.51C76.82,263.68,11.52,195.82,23.94,120.25H2.62ZM108.7,215.78c-1.71-1.37-6.35-8.68-8-11.06-8.22-11.81-14.26-23.39-24-34.36-1.47-1.65-8.23-7.58-8.53-8.74-.85-3.22,8.97-7.36,10.27-10.43.15-.78-4.74-9.12-5.52-9.96-3.51-3.73-12.98-7.36-17.48-10.95-3.48-2.77-5.25-6.59-8.82-9.13-3.13.53-16.41-2.33-17.85-.2-13.64,91.28,84.54,158.11,165.51,113.14,57.2-31.77,74.97-105.42,37.52-159.72C195.11,21.21,119.85,10.41,69.22,50.69c-2.26,1.8-11.41,9.67-12.36,11.59-.74,1.49,1.83.53,2.97,1.47.98.81,1.26,2.33,2.08,2.62,2.7.95,7.7.97,10.67,1.87,13.28,4.01,26.66,18.06,29.7,31.64.47,2.11.79,10.08,1.07,10.53.12.19,2.66.91,3.68,1.93,1.18,1.19,1.55,3.4,2.16,3.82,1.86,1.28,6.65-1.08,8.25,2.23l-1.87,1.86c-3.45-.73-7.45.75-10.5.77-6.25.04-12.35-.09-18.66.05-1.34.03-10.88-1.7-10.85.31,1.57,1.61,2.16,3.55,3.71,5.26,1.83,2.03,6.44,4.08,7.12,5.6,1.11,2.5-.48,6.24,1.73,8.75,12.25,16.36,20.75,35.57,38.72,46.62l14.54-1.89c3.54-4.69,6.89-9.55,10.5-14.19,3.81-4.89,10.88-9.34,9.71-16.1.43-.47,10.48,3.74,7.9-5.31-1.54-5.4-13.85-2.4-15.45-4.92-1.24-1.96-.47-5.72-.72-8.07-.15-1.35-1.3-2.37-1.36-3.74-.11-2.4,1.96-6.52,1.29-8.86l-5.87-3.54c1.36-5.69,7.47-6.77,9.65-12.41,1.07-2.78.46-4.7,1.16-7.07.37-1.26,1.95-2.69,2.57-4.17,1.97-4.76,3.58-9.67,5.96-14.26.23-2.49-13.13-10.1-4.74-18.19,4-3.85,10.99-5.15,16.24-3.53,9.18,2.83,11.47,12.63,19.68,16.23l-1.13-2.23c9.41,1.3,29.14,1.01,20.94,15.7,8.22-2.15,12.17,8.37,5.62,12.73-6.02,4.01-10.8-.93-14.39,8.8-2.84,7.69-2.31,17.71-9.82,23.04.72,1.58,1.6,8.45,2.3,9.14.74.73,3.06-.04,3.83,1.83,1.08,2.61-.16,5.76.88,8.05.41.9,2.16,1.94,2.92,3.07,11.52,17.11,8.85,33.45,3.76,52.27-.43,1.59-.06,3.38-.49,4.75-1.36,4.36-15.17,13.14-19.54,15.62-20.03,11.4-43.35,15.99-66.34,13.34-.19-9.27.53-18.7,3-27.68-4.68-.56-17.23,2.58-20.73-.23ZM42.64,72.38c-8.08,3.19-17.6,9.62-19.44,18.7,2.79-3.26,4.64-6.69,7.83-9.74,3.53-3.38,8.11-5.57,11.61-8.95ZM70.32,125.49c-1.02-5.17-6.1-7.03-10.46-4.11l10.46,4.11Z"></path>
  <path d="M55.5,24.36l-.13-2.86c1.2-.18.47,1.23,1.63,1.75,3.87,1.7,20.86-1.85,12-5.29-7.13-2.78-20.55-2.79-25.2,4.32-8.15,12.46,16.45,8.33,16.62,14.66-.73,5.11-7.6,6.36-10.31,9.82-1.05,1.33-.94,3.42-2.22,3.92-2.78-5.74,8.89-10.75,8.15-13.7-1.06-4.21-15.52-1.26-16.4-6.91-.68-4.36,2.78-10.63,6.49-12.93,5.38-3.33,19.22-3.46,24.72-.28,10.7,6.19-10.57,12.15-15.36,7.51Z"></path>
  <path class="cls-1" d="M42.64,72.38c-3.5,3.38-8.08,5.58-11.61,8.95-3.19,3.05-5.04,6.48-7.83,9.74,1.84-9.07,11.37-15.5,19.44-18.7Z"></path>
  <path d="M222.21,206.28c.67-5.97,5.81-10.9,8.82-16.24C284.41,95.42,176.52-7.7,84.77,48.28c-2.51,1.53-13.98,11.17-14.9,11.3-.78.11-2.03-.63-1.42-1.43,46.27-41.7,118.76-34.49,156.73,14.6,29.79,38.52,29.49,96.75-2.97,133.53Z"></path>
  <path d="M35.16,129.22c-3.64,49.2,25.45,92.13,71.43,108.51,3.2,1.14,7.66,1.46,10.54,2.92,1.08.54,2.13.69,1.82,2.28-52.84-9.21-90.9-60.33-86.03-113.72h2.24Z"></path>
</svg></svg></g></g></svg></g></svg>