<?xml version="1.0" encoding="UTF-8"?>
<svg id="Layer_1" xmlns="http://www.w3.org/2000/svg" version="1.1" viewBox="0 0 256 256">
  <!-- Generator: Adobe Illustrator 29.5.1, SVG Export Plug-In . SVG Version: 2.1.0 Build 141)  -->
  <defs>
    <style>
      .st0 {
        fill: #d3a376;
      }

      .st1 {
        fill: #3e2522;
      }

      .st2 {
        fill: none;
        stroke: #3e2522;
        stroke-linecap: round;
        stroke-linejoin: round;
        stroke-width: 1.97px;
      }
    </style>
  </defs>
  <g id="SVGRepo_tracerCarrier">
    <path class="st2" d="M112.59,174.15c0,12.02-9.69,21.6-21.6,21.6s-21.6-9.58-21.6-21.6h-6.01c0,15.22,12.39,27.61,27.61,27.61s27.61-12.39,27.61-27.61h-6.01Z"/>
    <path class="st2" d="M91.04,134.18c-18.3,0-33.66,15.46-33.66,33.77v3h30.45v3.61h6.01v-3.61h30.85v-3c0-18.3-15.35-33.77-33.66-33.77ZM63.4,164.94c.12-1.09.32-2.16.57-3.21h36.28v-6.01h-34.07c4.61-9.11,14.12-15.54,24.81-15.54s20.2,6.42,24.81,15.54h-9.13v6.01h11.34c.25,1.05.45,2.12.57,3.21h-55.17Z"/>
    <path class="st2" d="M195.21,134.28v-19.84l-9.21-9.23v-18.87c2.23,2.83,5.69,4.66,9.62,4.66v-6.01c-3.61,0-6.22-2.79-6.22-6.22s2.62-6.22,6.22-6.22v-6.01c-5.85,0-10.67,4.04-11.91,9.46h-43.78v6.01h12.42v3.21h-2.8v6.01h8.81v-9.22h9.22v51.05l-16.47,19.86h-7.57v6.01h10.4l19.65-23.71v-53.22h6.41v25.7l9.21,9.23v5.14h-6.01v6.01h6.01v6.28c-14.85,1.57-27.26,13.23-29.92,27.78h-19.14v-44.61c0-4.35-2.54-8.13-6.22-9.9v-4.31h6.22v-3.01c0-8.44-6.87-15.31-15.31-15.31h-24.54v3.01c0,7.3,5.14,13.42,11.99,14.94v3.59h-15.2v-9.23h-6.15v-33.98c0-5.01-4.08-9.09-9.09-9.09h-43.21c-5.01,0-9.09,4.08-9.09,9.09v39.99h45.88v3.24c-4.83.19-9.39,2.56-12.3,6.44l-2.31,3.07h-16.24v21.65l-15.02,20.03v10.16h24.54v-6.01h-18.53v-2.15l32.37-43.16c1.9-2.54,4.94-4.06,8.11-4.06h53.11c2.75,0,4.98,2.24,4.98,4.98v1.34h-24.65v6.01h24.65v37.26h-6.22v6.01h30.85v2.8h33.25v3.61h6.01v-3.61h28.45v-3c0-17.43-14.1-32.28-31.25-33.66ZM50.57,129.7v-7.63h5.72l-5.72,7.63ZM35.55,97.3v-24.51h15.43v-6.01h-15.43v-3.46c0-1.7,1.38-3.08,3.08-3.08h43.21c1.7,0,3.07,1.38,3.07,3.08v3.46h-15.5v6.01h15.5v24.51h-49.36ZM91.06,106.53h-9.64v-3.22h9.64v3.22ZM127.9,106.53h-9.62v-3.22h9.62s0,3.22,0,3.22ZM115.6,97.3c-4.08,0-7.55-2.64-8.8-6.29h18.03c4.08,0,7.55,2.64,8.8,6.29h-18.03ZM164.91,164.94c.12-1.09.32-2.16.57-3.21h36.54v-6.01h-34.33c4.61-9.11,14.12-15.54,24.81-15.54s20.2,6.42,24.81,15.54h-9.68v6.01h11.88c.25,1.05.45,2.12.57,3.21h-55.17Z"/>
    <path class="st2" d="M97.21,174.15c0,3.61-2.79,6.22-6.22,6.22s-6.22-2.62-6.22-6.22h-6.01c0,6.81,5.49,12.23,12.23,12.23s12.23-5.42,12.23-12.23h-6.01Z"/>
    <path class="st2" d="M201.8,174.15c0,3.61-2.79,6.22-6.22,6.22s-6.22-2.62-6.22-6.22h-6.01c0,6.81,5.49,12.23,12.23,12.23s12.23-5.42,12.23-12.23h-6.01Z"/>
    <rect class="st2" x="53.78" y="66.78" width="12.82" height="6.01"/>
    <path class="st2" d="M217.18,174.15c0,12.02-9.69,21.6-21.6,21.6s-21.6-9.58-21.6-21.6h-6.01c0,15.22,12.39,27.61,27.61,27.61s27.61-12.39,27.61-27.61h-6.01Z"/>
    <rect class="st2" x="198.42" y="66.38" width="6.01" height="24.84"/>
    <rect class="st2" x="93.84" y="118.86" width="12.82" height="6.01"/>
    <rect class="st2" x="158.35" y="118.86" width="6.01" height="9.22"/>
    <rect class="st2" x="35.35" y="115.66" width="6.01" height="12.42"/>
  </g>
  <g id="SVGRepo_iconCarrier">
    <path class="st0" d="M112.59,174.15c0,12.02-9.69,21.6-21.6,21.6s-21.6-9.58-21.6-21.6h-6.01c0,15.22,12.39,27.61,27.61,27.61s27.61-12.39,27.61-27.61h-6.01Z"/>
    <path class="st0" d="M91.04,134.18c-18.3,0-33.66,15.46-33.66,33.77v3h30.45v3.61h6.01v-3.61h30.85v-3c0-18.3-15.35-33.77-33.66-33.77ZM63.4,164.94c.12-1.09.32-2.16.57-3.21h36.28v-6.01h-34.07c4.61-9.11,14.12-15.54,24.81-15.54s20.2,6.42,24.81,15.54h-9.13v6.01h11.34c.25,1.05.45,2.12.57,3.21h-55.17Z"/>
    <path class="st0" d="M195.21,134.28v-19.84l-9.21-9.23v-18.87c2.23,2.83,5.69,4.66,9.62,4.66v-6.01c-3.61,0-6.22-2.79-6.22-6.22s2.62-6.22,6.22-6.22v-6.01c-5.85,0-10.67,4.04-11.91,9.46h-43.78v6.01h12.42v3.21h-2.8v6.01h8.81v-9.22h9.22v51.05l-16.47,19.86h-7.57v6.01h10.4l19.65-23.71v-53.22h6.41v25.7l9.21,9.23v5.14h-6.01v6.01h6.01v6.28c-14.85,1.57-27.26,13.23-29.92,27.78h-19.14v-44.61c0-4.35-2.54-8.13-6.22-9.9v-4.31h6.22v-3.01c0-8.44-6.87-15.31-15.31-15.31h-24.54v3.01c0,7.3,5.14,13.42,11.99,14.94v3.59h-15.2v-9.23h-6.15v-33.98c0-5.01-4.08-9.09-9.09-9.09h-43.21c-5.01,0-9.09,4.08-9.09,9.09v39.99h45.88v3.24c-4.83.19-9.39,2.56-12.3,6.44l-2.31,3.07h-16.24v21.65l-15.02,20.03v10.16h24.54v-6.01h-18.53v-2.15l32.37-43.16c1.9-2.54,4.94-4.06,8.11-4.06h53.11c2.75,0,4.98,2.24,4.98,4.98v1.34h-24.65v6.01h24.65v37.26h-6.22v6.01h30.85v2.8h33.25v3.61h6.01v-3.61h28.45v-3c0-17.43-14.1-32.28-31.25-33.66ZM50.57,129.7v-7.63h5.72l-5.72,7.63ZM35.55,97.3v-24.51h15.43v-6.01h-15.43v-3.46c0-1.7,1.38-3.08,3.08-3.08h43.21c1.7,0,3.07,1.38,3.07,3.08v3.46h-15.5v6.01h15.5v24.51h-49.36ZM91.06,106.53h-9.64v-3.22h9.64v3.22ZM127.9,106.53h-9.62v-3.22h9.62s0,3.22,0,3.22ZM115.6,97.3c-4.08,0-7.55-2.64-8.8-6.29h18.03c4.08,0,7.55,2.64,8.8,6.29h-18.03ZM164.91,164.94c.12-1.09.32-2.16.57-3.21h36.54v-6.01h-34.33c4.61-9.11,14.12-15.54,24.81-15.54s20.2,6.42,24.81,15.54h-9.68v6.01h11.88c.25,1.05.45,2.12.57,3.21h-55.17Z"/>
    <path class="st0" d="M97.21,174.15c0,3.61-2.79,6.22-6.22,6.22s-6.22-2.62-6.22-6.22h-6.01c0,6.81,5.49,12.23,12.23,12.23s12.23-5.42,12.23-12.23h-6.01Z"/>
    <path class="st0" d="M201.8,174.15c0,3.61-2.79,6.22-6.22,6.22s-6.22-2.62-6.22-6.22h-6.01c0,6.81,5.49,12.23,12.23,12.23s12.23-5.42,12.23-12.23h-6.01Z"/>
    <rect class="st1" x="53.78" y="66.78" width="12.82" height="6.01"/>
    <path class="st0" d="M217.18,174.15c0,12.02-9.69,21.6-21.6,21.6s-21.6-9.58-21.6-21.6h-6.01c0,15.22,12.39,27.61,27.61,27.61s27.61-12.39,27.61-27.61h-6.01Z"/>
    <rect class="st1" x="198.42" y="66.38" width="6.01" height="24.84"/>
    <rect class="st1" x="93.84" y="118.86" width="12.82" height="6.01"/>
    <rect class="st1" x="158.35" y="118.86" width="6.01" height="9.22"/>
    <rect class="st1" x="35.35" y="115.66" width="6.01" height="12.42"/>
  </g>
</svg>