<?xml version="1.0" encoding="UTF-8"?>
<svg id="_Слой_1" data-name="Слой_1" xmlns="http://www.w3.org/2000/svg" version="1.1" viewBox="0 0 64 64">
  <!-- Generator: Adobe Illustrator 29.5.1, SVG Export Plug-In . SVG Version: 2.1.0 Build 141)  -->
  <defs>
    <style>
      .st0 {
        fill: #8c6e63;
      }
    </style>
  </defs>
  <path class="st0" d="M58,17h-1V1H7v16h-1c-2.76,0-5,2.24-5,5v30c0,2.76,2.24,5,5,5h13v4h-4v2h34v-2h-4v-4h13c2.76,0,5-2.24,5-5v-30c0-2.76-2.24-5-5-5ZM9,11h46v32H9V11ZM55,3v6H9V3h46ZM6,19h1v26h50v-26h1c1.65,0,3,1.35,3,3v27H3v-27c0-1.65,1.35-3,3-3ZM43,61h-22v-4h22v4ZM58,55H6c-1.65,0-3-1.35-3-3v-1h58v1c0,1.65-1.35,3-3,3Z"/>
  <rect class="st0" x="11" y="5" width="2" height="2"/>
  <rect class="st0" x="15" y="5" width="2" height="2"/>
  <rect class="st0" x="19" y="5" width="2" height="2"/>
  <path class="st0" d="M32.53,15h-1.06c-3.01,0-5.47,2.45-5.47,5.47v1.53h2v-1.53c0-1.91,1.56-3.47,3.47-3.47h1.06c1.91,0,3.47,1.56,3.47,3.47,0,1.21-.65,2.35-1.69,2.98l-3.31,1.99v5.57h2v-4.43l2.35-1.41c1.64-.98,2.65-2.78,2.65-4.69,0-3.01-2.45-5.47-5.47-5.47Z"/>
  <path class="st0" d="M32,33c-1.65,0-3,1.35-3,3s1.35,3,3,3,3-1.35,3-3-1.35-3-3-3ZM32,37c-.55,0-1-.45-1-1s.45-1,1-1,1,.45,1,1-.45,1-1,1Z"/>
  <rect class="st0" x="11" y="13" width="13" height="2"/>
  <rect class="st0" x="11" y="17" width="13" height="2"/>
  <rect class="st0" x="11" y="21" width="13" height="2"/>
  <rect class="st0" x="11" y="25" width="13" height="2"/>
  <rect class="st0" x="11" y="29" width="13" height="2"/>
  <rect class="st0" x="40" y="23" width="13" height="2"/>
  <rect class="st0" x="40" y="27" width="13" height="2"/>
  <rect class="st0" x="40" y="31" width="13" height="2"/>
  <rect class="st0" x="40" y="35" width="13" height="2"/>
  <rect class="st0" x="40" y="39" width="13" height="2"/>
</svg>