<?xml version="1.0" encoding="UTF-8"?>
<svg id="_Слой_1" data-name="Слой_1" xmlns="http://www.w3.org/2000/svg" version="1.1" viewBox="0 0 512 512">
  <!-- Generator: Adobe Illustrator 29.5.1, SVG Export Plug-In . SVG Version: 2.1.0 Build 141)  -->
  <defs>
    <style>
      .st0 {
        fill: #3e2522;
      }
    </style>
  </defs>
  <path class="st0" d="M256,0C114.84,0,0,114.84,0,256s114.84,256,256,256,256-114.84,256-256S397.16,0,256,0ZM256,487.62c-127.72,0-231.62-103.9-231.62-231.62S128.28,24.38,256,24.38s231.62,103.9,231.62,231.62-103.9,231.62-231.62,231.62Z"/>
  <path class="st0" d="M256,48.76c-114.27,0-207.24,92.97-207.24,207.24s92.97,207.24,207.24,207.24,207.24-92.97,207.24-207.24S370.27,48.76,256,48.76ZM256,438.86c-100.83,0-182.86-82.03-182.86-182.86s82.03-182.86,182.86-182.86,182.86,82.03,182.86,182.86-82.03,182.86-182.86,182.86Z"/>
  <path class="st0" d="M279.16,112.15h-46.32c-25.88,0-47.54,20.44-47.54,46.32v22.55c0,6.73,5.46,12.19,12.19,12.19s12.19-5.46,12.19-12.19v-22.55c0-12.43,10.73-21.94,23.16-21.94h46.32c12.43,0,21.94,9.51,21.94,21.94v37.79c0,12.44-10.12,22.55-22.55,22.55-25.88,0-46.93,21.05-46.93,46.93v34.74c0,6.73,5.46,12.19,12.19,12.19s12.19-5.46,12.19-12.19v-34.74c0-12.43,10.12-22.55,22.55-22.55,25.88,0,46.93-21.05,46.93-46.93v-37.79c0-25.88-20.44-46.32-46.32-46.32Z"/>
  <path class="st0" d="M245.03,337.07c-20.16,0-36.57,16.41-36.57,36.57s16.41,36.57,36.57,36.57,36.57-16.41,36.57-36.57-16.41-36.57-36.57-36.57ZM245.03,385.83c-6.72,0-12.19-5.47-12.19-12.19s5.47-12.19,12.19-12.19,12.19,5.47,12.19,12.19-5.47,12.19-12.19,12.19Z"/>
</svg>