<?xml version="1.0" encoding="UTF-8"?>
<svg id="Layer_1" xmlns="http://www.w3.org/2000/svg" version="1.1" viewBox="0 0 800 800">
  <!-- Generator: Adobe Illustrator 29.5.1, SVG Export Plug-In . SVG Version: 2.1.0 Build 141)  -->
  <defs>
    <style>
      .st0 {
        fill: #d3a376;
        stroke: #3e2522;
        stroke-miterlimit: 10;
        stroke-width: 10px;
      }
    </style>
  </defs>
  <path class="st0" d="M617.34,451.56h0c-4.37-12.5-15.62-20.31-28.75-20.31h-19.84V71.88c0-36.59-29.04-65.62-65.62-65.62H150c-38.84,0-71.88,33.03-71.88,71.88v571.88c0,37.19,34.22,68.75,71.09,68.75h356.92c3.77,0,7.09,3.07,6.81,6.84-.3,3.96-3.6,5.66-7.48,5.66h-142.19l108.59,62.5h250l-104.53-342.19ZM328.28,688.12c-10,0-17.5-7.5-17.5-17.49,0-9.52,7.99-17.51,17.51-17.51,10,0,17.49,7.5,17.49,17.5-.31,10-7.5,17.5-17.5,17.5ZM521.88,431.25h-61.41c-16.56,0-30.63,14.69-30.63,31.25h0c0,16.56,14.06,31.25,30.63,31.25h61.87v131.25H128.12V96.88h393.75v334.38ZM196.55,205.2l21.32,166.43h71.21l21.12-166.43h-87.15l-17.39-60.24-9.52,2.69,16.56,57.34-16.14.21ZM320.33,302.28s-2.69-24.22,34.36-24.22h59c36.85,0,34.36,24.22,34.36,24.22h-127.72ZM447.85,347.41s2.48,24.22-34.36,24.22h-58.79c-37.05,0-34.36-24.22-34.36-24.22h127.51ZM325.92,335.61c-6,0-10.97-4.76-10.97-10.97s4.76-10.97,10.97-10.97h117.16c6,0,10.97,4.76,10.97,10.97s-4.97,10.97-10.97,10.97h-117.16ZM456.54,404.33H191.58v-20.08h264.97v20.08h0Z"/>
</svg>