<?xml version="1.0" encoding="UTF-8"?>
<svg id="_Слой_1" data-name="Слой_1" xmlns="http://www.w3.org/2000/svg" version="1.1" viewBox="0 0 800 800">
  <!-- Generator: Adobe Illustrator 29.5.1, SVG Export Plug-In . SVG Version: 2.1.0 Build 141)  -->
  <defs>
    <style>
      .st0 {
        fill: #d3a376;
        fill-rule: evenodd;
        stroke: #3e2522;
        stroke-miterlimit: 10;
        stroke-width: 10px;
      }
    </style>
  </defs>
  <path class="st0" d="M633.07,269.14c-7.46,7.6-15,14.31-21.82,19.93-6.58-5.43-13.83-11.99-20.99-19.47-24.08-25.16-40.26-53.33-40.26-80.01,0-36.54,28.84-64.58,62.5-64.58s62.5,28.05,62.5,64.58c0,25.83-16.62,53.78-41.93,79.55ZM725,189.58c0,91.67-112.5,160.42-112.5,160.42-5.62,0-112.5-68.75-112.5-160.42,0-63.28,50.37-114.58,112.5-114.58s112.5,51.3,112.5,114.58ZM125,300c0,41.42,33.58,75,75,75h400c69.04,0,125,55.96,125,125s-55.96,125-125,125h-275v-50h275c41.42,0,75-33.58,75-75s-33.58-75-75-75H200c-69.04,0-125-55.96-125-125s55.96-125,125-125h275v50H200c-41.42,0-75,33.58-75,75ZM208.07,644.14c-7.46,7.6-14.99,14.31-21.82,19.93-6.58-5.43-13.83-11.99-20.99-19.47-24.08-25.16-40.26-53.33-40.26-80.01,0-36.54,28.84-64.58,62.5-64.58s62.5,28.05,62.5,64.58c0,25.83-16.62,53.78-41.93,79.55ZM300,564.58c0,91.67-112.5,160.42-112.5,160.42-5.62,0-112.5-68.75-112.5-160.42,0-63.28,50.37-114.58,112.5-114.58s112.5,51.3,112.5,114.58ZM225,562.5c0,20.71-16.79,37.5-37.5,37.5s-37.5-16.79-37.5-37.5,16.79-37.5,37.5-37.5,37.5,16.79,37.5,37.5ZM612.5,225c20.71,0,37.5-16.79,37.5-37.5s-16.79-37.5-37.5-37.5-37.5,16.79-37.5,37.5,16.79,37.5,37.5,37.5Z"/>
</svg>